<?xml version="1.0" standalone="no"?>
<!DOCTYPE svg PUBLIC "-//W3C//DTD SVG 20010904//EN"
 "http://www.w3.org/TR/2001/REC-SVG-20010904/DTD/svg10.dtd">
<svg version="1.0" xmlns="http://www.w3.org/2000/svg"
 width="512.000000pt" height="512.000000pt" viewBox="0 0 512.000000 512.000000"
 preserveAspectRatio="xMidYMid meet">
<metadata>
Created by potrace 1.16, written by Peter Selinger 2001-2019
</metadata>
<g transform="translate(0.000000,512.000000) scale(0.100000,-0.100000)"
fill="#fff" stroke="none">
<path d="M2371 5100 c-212 -57 -380 -192 -475 -383 -76 -151 -81 -182 -81
-487 l0 -265 26 -56 c15 -32 46 -76 69 -99 39 -39 127 -89 160 -90 8 -1 27
-27 42 -59 16 -32 46 -79 68 -104 30 -33 40 -54 40 -79 l0 -33 -173 -64 c-94
-35 -200 -77 -234 -92 -125 -55 -221 -180 -243 -314 -5 -33 -10 -160 -10 -282
l0 -223 1000 0 1000 0 0 223 c0 122 -4 248 -10 280 -20 127 -106 246 -218 304
-31 17 -141 61 -244 99 l-188 69 0 33 c0 25 10 46 41 80 22 25 52 72 67 104
15 32 34 58 42 58 32 0 120 50 160 90 23 23 54 67 69 99 l26 56 0 265 c0 246
-2 271 -23 343 -71 247 -250 436 -487 514 -111 36 -314 43 -424 13z m370 -182
c96 -35 156 -73 224 -142 99 -101 165 -252 165 -380 l0 -57 -31 17 c-18 9 -76
20 -133 25 -160 14 -246 51 -353 152 l-53 50 -53 -50 c-108 -102 -191 -138
-353 -152 -57 -5 -115 -16 -133 -25 l-31 -17 0 57 c0 183 130 393 297 482 143
76 314 91 454 40z m-153 -597 c68 -47 157 -82 276 -106 l29 -6 -5 -197 c-4
-186 -6 -200 -30 -253 -33 -73 -83 -128 -150 -165 -48 -26 -62 -29 -148 -29
-86 0 -100 3 -148 29 -67 37 -117 92 -150 165 -24 53 -26 67 -30 253 l-5 197
29 6 c117 24 222 65 279 109 25 19 22 19 53 -3z m-28 -934 c58 0 117 5 132 11
24 10 19 -2 -50 -118 -42 -71 -79 -129 -82 -129 -3 0 -40 58 -82 129 -69 116
-74 128 -50 118 15 -6 74 -11 132 -11z m-208 -239 c40 -68 74 -128 76 -133 1
-6 -31 -27 -72 -47 l-75 -37 -47 142 c-26 78 -49 147 -51 154 -5 12 48 41 79
42 10 1 41 -41 90 -121z m553 106 c20 -8 35 -20 32 -27 -2 -7 -25 -76 -51
-154 l-47 -143 -72 36 c-40 20 -74 38 -76 40 -8 7 152 264 164 264 7 0 29 -7
50 -16z m-810 -324 c43 -129 80 -237 82 -240 2 -2 89 38 193 90 l190 95 190
-95 c104 -52 191 -92 193 -90 2 3 39 111 82 240 43 129 79 238 81 242 10 17
168 -58 206 -99 57 -59 68 -103 68 -270 l0 -153 -820 0 -820 0 0 153 c0 139 2
156 24 203 13 28 41 66 63 84 40 34 173 92 184 81 4 -3 41 -112 84 -241z"/>
<path d="M1237 4302 c-31 -32 -57 -62 -57 -67 0 -5 39 -49 87 -97 l88 -88
-210 0 c-200 0 -212 -1 -260 -24 -60 -28 -97 -66 -124 -126 -20 -44 -21 -62
-21 -817 l0 -773 85 0 85 0 2 760 3 759 23 23 c22 22 30 23 220 26 l197 3 -87
-88 c-49 -49 -88 -93 -88 -99 0 -5 27 -36 60 -69 l60 -60 198 198 197 197
-200 200 -200 200 -58 -58z"/>
<path d="M3460 3966 l0 -85 226 -3 226 -3 24 -28 24 -28 0 -522 0 -522 -88 88
c-48 48 -92 87 -98 87 -5 0 -35 -26 -67 -58 l-57 -57 200 -200 200 -200 197
198 198 197 -63 62 -62 63 -95 -95 -95 -95 0 550 c0 512 -2 553 -19 590 -23
51 -98 118 -149 133 -25 8 -122 12 -271 12 l-231 0 0 -84z"/>
<path d="M3647 2313 c-2 -5 -17 -59 -32 -120 -15 -62 -31 -113 -35 -113 -5 0
-54 27 -111 61 l-102 61 -225 -225 -225 -225 62 -101 c33 -56 61 -106 61 -110
0 -5 -53 -22 -117 -38 l-118 -29 -3 -317 -2 -316 42 -11 c24 -6 59 -15 78 -20
96 -24 120 -31 120 -38 0 -5 -27 -55 -61 -111 l-61 -104 224 -224 223 -223
102 60 c56 33 106 60 112 60 5 0 22 -52 37 -115 l28 -115 320 2 320 3 26 105
c15 58 28 111 31 117 3 9 42 -10 113 -53 l110 -65 223 223 224 224 -65 110
c-41 68 -60 111 -53 113 7 3 59 16 117 31 l105 26 3 320 2 320 -115 28 c-63
15 -115 32 -115 37 0 6 27 56 60 112 l60 102 -224 224 -223 223 -104 -61 c-56
-34 -106 -61 -111 -61 -7 0 -13 20 -37 118 -5 20 -15 56 -21 80 l-11 42 -314
0 c-173 0 -316 -3 -318 -7z m522 -273 l25 -95 81 -32 c44 -18 84 -33 87 -33 4
0 44 22 90 50 l83 50 126 -126 127 -127 -53 -87 -53 -87 30 -69 c16 -38 32
-76 37 -84 4 -8 50 -26 105 -40 l96 -25 -2 -179 -3 -180 -96 -24 -96 -25 -27
-66 c-43 -103 -43 -102 8 -186 25 -42 46 -79 46 -83 0 -9 -243 -252 -252 -252
-4 0 -41 21 -83 46 -84 51 -83 51 -187 8 l-67 -27 -23 -96 -24 -96 -180 -3
-180 -2 -24 98 -23 99 -66 27 c-105 43 -102 44 -195 -12 l-84 -50 -126 127
-126 126 50 83 c28 46 50 86 50 90 0 3 -14 43 -32 87 l-32 81 -95 25 -96 25
-3 180 -2 179 96 25 97 25 34 80 c18 44 33 84 33 88 0 8 -44 84 -87 152 -12
19 -3 31 115 147 l127 127 80 -49 c44 -27 85 -50 90 -50 6 0 46 15 90 34 l80
33 25 97 25 96 180 -2 179 -3 25 -95z"/>
<path d="M3811 1805 c-181 -41 -357 -179 -439 -346 -57 -115 -75 -206 -69
-339 9 -177 71 -315 198 -441 111 -109 257 -174 419 -185 437 -31 785 370 695
801 -47 226 -228 426 -450 495 -90 29 -262 36 -354 15z m229 -166 c135 -21
260 -106 340 -230 53 -83 73 -165 68 -281 -3 -83 -8 -103 -41 -171 -51 -109
-127 -186 -235 -240 -77 -38 -92 -41 -179 -45 -117 -5 -199 14 -282 68 -221
143 -296 397 -185 628 77 160 246 271 429 281 11 0 49 -4 85 -10z"/>
<path d="M3852 1472 c-219 -78 -294 -362 -141 -536 97 -111 257 -145 391 -83
77 35 123 79 160 155 30 60 33 75 33 152 -1 73 -5 93 -30 143 -34 68 -98 130
-163 160 -67 29 -181 33 -250 9z m193 -181 c94 -53 101 -200 12 -263 -36 -26
-116 -35 -157 -18 -67 28 -108 113 -89 183 28 104 141 151 234 98z"/>
<path d="M0 1075 l0 -1075 830 0 830 0 0 1075 0 1075 -830 0 -830 0 0 -1075z
m1480 0 l0 -905 -655 0 -655 0 0 905 0 905 655 0 655 0 0 -905z"/>
<path d="M330 1735 l0 -85 500 0 500 0 0 85 0 85 -500 0 -500 0 0 -85z"/>
<path d="M330 1405 l0 -85 85 0 85 0 0 85 0 85 -85 0 -85 0 0 -85z"/>
<path d="M660 1405 l0 -85 335 0 335 0 0 85 0 85 -335 0 -335 0 0 -85z"/>
<path d="M330 1075 l0 -85 500 0 500 0 0 85 0 85 -500 0 -500 0 0 -85z"/>
<path d="M330 745 l0 -85 500 0 500 0 0 85 0 85 -500 0 -500 0 0 -85z"/>
<path d="M330 415 l0 -85 335 0 335 0 0 85 0 85 -335 0 -335 0 0 -85z"/>
<path d="M1150 415 l0 -85 90 0 90 0 0 85 0 85 -90 0 -90 0 0 -85z"/>
<path d="M1892 1357 c-105 -106 -192 -197 -192 -202 0 -6 88 -98 195 -205
l195 -195 62 63 63 62 -95 95 -95 95 313 0 312 0 0 85 0 85 -312 0 -313 0 95
95 94 95 -59 60 c-33 33 -62 60 -65 60 -3 0 -92 -87 -198 -193z"/>
</g>
</svg>
