<?xml version="1.0" standalone="no"?>
<!DOCTYPE svg PUBLIC "-//W3C//DTD SVG 20010904//EN"
 "http://www.w3.org/TR/2001/REC-SVG-20010904/DTD/svg10.dtd">
<svg version="1.0" xmlns="http://www.w3.org/2000/svg"
 width="512.000000pt" height="512.000000pt" viewBox="0 0 512.000000 512.000000"
 preserveAspectRatio="xMidYMid meet">
<metadata>
Created by potrace 1.16, written by Peter Selinger 2001-2019
</metadata>
<g transform="translate(0.000000,512.000000) scale(0.100000,-0.100000)"
fill="#fff" stroke="none">
<path d="M840 5098 c-20 -22 -20 -26 -20 -1590 l0 -1569 25 -24 c15 -16 36
-25 55 -25 19 0 40 9 55 25 l25 24 0 1516 0 1515 1655 0 1655 0 -2 -1837 -3
-1838 -23 -57 c-33 -81 -108 -160 -190 -200 -59 -29 -76 -33 -152 -33 -74 0
-93 4 -150 31 -123 58 -202 171 -219 309 -14 117 138 105 -1312 105 l-1259 0
0 125 c0 120 -1 127 -25 150 -32 33 -78 33 -110 0 -24 -23 -25 -30 -25 -150
l0 -125 -350 0 -351 0 -26 -26 c-24 -24 -25 -30 -20 -97 18 -210 152 -385 352
-459 56 -21 79 -22 378 -26 l317 -3 0 -248 c0 -311 -12 -291 173 -291 l127 0
0 -128 c0 -121 1 -130 23 -150 l23 -22 1771 0 1772 0 20 26 21 27 0 2212 0
2212 -23 21 c-21 20 -34 22 -150 22 l-127 0 0 128 c0 173 1 172 -173 172
l-127 0 0 128 c0 121 -1 130 -23 150 l-23 22 -1772 0 -1771 0 -21 -22z m3750
-702 c0 -261 1 -274 21 -300 16 -20 29 -26 59 -26 30 0 43 6 59 26 19 24 21
40 21 150 l0 124 70 0 70 0 0 -2110 0 -2110 -1655 0 -1655 0 0 75 0 75 1564 0
1565 0 20 26 21 27 0 1757 0 1757 -21 27 c-27 34 -88 37 -119 4 -20 -22 -20
-25 -20 -1735 l0 -1713 -1655 0 -1655 0 0 195 0 195 1378 2 1377 3 60 23 c152
58 269 175 327 328 l23 59 3 1708 2 1707 70 0 70 0 0 -274z m-1190 -3126 c0
-35 46 -148 81 -197 19 -26 38 -54 43 -61 6 -10 -288 -12 -1501 -10 l-1508 3
-65 31 c-97 46 -174 133 -204 232 l-7 22 1580 0 c1562 0 1581 0 1581 -20z"/>
<path d="M2488 4390 c-354 -64 -627 -315 -720 -662 -18 -68 -22 -108 -22 -223
1 -171 20 -254 94 -400 153 -305 450 -488 795 -488 345 0 642 183 795 488 73
145 93 229 93 400 1 155 -18 250 -73 371 -82 180 -239 343 -417 433 -114 57
-223 82 -368 86 -71 2 -151 0 -177 -5z m375 -187 c122 -43 189 -85 287 -183
95 -94 150 -186 191 -320 30 -96 32 -270 5 -370 -80 -298 -322 -509 -630 -550
-293 -39 -603 131 -736 405 -58 121 -74 190 -74 330 0 108 3 129 31 210 57
168 157 299 294 391 138 92 258 125 429 120 96 -3 129 -8 203 -33z"/>
<path d="M2905 3933 c-77 -17 -95 -31 -266 -200 l-176 -173 -38 30 c-113 89
-280 54 -347 -73 -30 -57 -31 -156 -1 -212 12 -22 77 -94 145 -161 103 -101
131 -122 171 -134 55 -15 131 -9 179 16 44 22 551 529 573 573 9 19 20 60 22
91 11 114 -65 215 -178 239 -27 6 -53 10 -57 10 -4 -1 -16 -3 -27 -6z m88
-185 c40 -47 32 -57 -241 -330 -219 -219 -262 -258 -287 -258 -24 0 -50 21
-142 113 -122 122 -131 140 -88 182 35 36 60 31 118 -24 59 -55 86 -71 118
-71 16 0 83 59 228 204 114 112 213 206 221 209 23 8 53 -2 73 -25z"/>
<path d="M1463 2380 c-45 -18 -56 -80 -22 -124 l20 -26 530 0 c516 0 530 1
549 20 31 31 27 93 -6 119 -26 21 -35 21 -538 20 -281 0 -521 -4 -533 -9z"/>
<path d="M2737 2370 l-27 -21 0 -190 c0 -176 1 -190 20 -209 19 -19 33 -20
549 -20 l530 0 20 26 c19 25 21 40 21 204 0 160 -2 180 -19 201 l-19 24 -524
3 c-520 2 -525 2 -551 -18z m953 -210 l0 -70 -415 0 -415 0 0 70 0 70 415 0
415 0 0 -70z"/>
<path d="M1463 2080 c-45 -18 -56 -80 -22 -124 l20 -26 530 0 c516 0 530 1
549 20 31 31 27 93 -6 119 -26 21 -35 21 -538 20 -281 0 -521 -4 -533 -9z"/>
</g>
</svg>
